<?xml version="1.0" encoding="utf-8"?>
<!-- Svg Vector Icons : http://www.onlinewebfonts.com/icon -->
<!DOCTYPE svg PUBLIC "-//W3C//DTD SVG 1.1//EN" "http://www.w3.org/Graphics/SVG/1.1/DTD/svg11.dtd">
<svg version="1.1" xmlns="http://www.w3.org/2000/svg" xmlns:xlink="http://www.w3.org/1999/xlink" x="0px" y="0px" viewBox="0 0 1000 1000" enable-background="new 0 0 1000 1000" xml:space="preserve">
<metadata> Svg Vector Icons : http://www.onlinewebfonts.com/icon </metadata>
<g><path d="M67.6,500c0,2.5,1.6-1.7,4.5-7.3c4.8-9.2,12-20.7,20.9-33.1c22-30.8,51.3-63.2,85.2-92.8c90.6-78.9,199.5-126.2,321.7-126.2c122.2,0,231.1,47.3,321.7,126.2c33.9,29.6,63.2,62,85.2,92.8c8.9,12.4,16.1,23.9,20.9,33.1c2.9,5.6,4.5,9.8,4.5,7.3c0-2.5-1.6,1.7-4.5,7.3c-4.8,9.2-12,20.7-20.9,33.1c-22,30.8-51.3,63.2-85.2,92.8C731.1,712.1,622.2,759.4,500,759.4c-122.2,0-231.1-47.3-321.7-126.2c-33.9-29.6-63.2-62-85.2-92.8C84.2,528,77,516.5,72.1,507.3C69.2,501.7,67.6,497.5,67.6,500L67.6,500L67.6,500z M10,500c0,32.2,58.7,114.2,130.4,176.7C240.8,764.1,362.7,817.1,500,817.1s259.2-52.9,359.6-140.4C931.3,614.2,990,532.2,990,500c0-32.2-58.7-114.2-130.4-176.7C759.2,235.9,637.3,182.9,500,182.9s-259.2,52.9-359.6,140.4C68.7,385.8,10,467.8,10,500L10,500L10,500z M672.9,500c0,95.5-77.4,172.9-172.9,172.9S327.1,595.5,327.1,500c0-95.5,77.4-172.9,172.9-172.9S672.9,404.5,672.9,500L672.9,500L672.9,500z M730.6,500c0-127.4-103.2-230.6-230.6-230.6S269.4,372.6,269.4,500c0,127.4,103.2,230.6,230.6,230.6S730.6,627.4,730.6,500L730.6,500L730.6,500z"/></g>
</svg>